<svg width="192" height="49" viewBox="0 0 192 49" fill="none" xmlns="http://www.w3.org/2000/svg">
<path d="M0.464 48L20.176 2.56H28.944L47.888 48H37.264L33.616 38.72H14.864L11.088 48H0.464ZM18.448 30.016H30.16L24.4 15.36L18.448 30.016ZM50.401 48V0.639999H60.193V15.424L59.873 20.416C62.2197 16.7467 65.7183 14.912 70.369 14.912C73.2703 14.912 75.745 15.5733 77.793 16.896C79.841 18.2187 81.3983 20.0533 82.465 22.4C83.5317 24.7467 84.065 27.4347 84.065 30.464C84.065 34.0907 83.3183 37.2693 81.825 40C80.3317 42.7307 78.3263 44.864 75.809 46.4C73.2917 47.8933 70.4757 48.64 67.361 48.64C65.2703 48.64 63.4357 48.2347 61.857 47.424C60.321 46.5707 59.1263 45.4613 58.273 44.096L57.377 48H50.401ZM66.337 40.128C68.6837 40.128 70.5397 39.2533 71.905 37.504C73.2703 35.712 73.953 33.4507 73.953 30.72C73.953 28.416 73.4197 26.624 72.353 25.344C71.329 24.064 69.921 23.424 68.129 23.424C65.953 23.424 64.0757 24.32 62.497 26.112C60.961 27.904 60.193 30.2507 60.193 33.152C60.193 35.2853 60.7477 36.992 61.857 38.272C62.9663 39.5093 64.4597 40.128 66.337 40.128ZM105.9 14.912C110.977 14.912 114.945 16.3627 117.804 19.264C120.705 22.1653 122.156 26.0907 122.156 31.04C122.156 34.4107 121.43 37.4187 119.979 40.064C118.529 42.7093 116.481 44.8 113.836 46.336C111.19 47.872 108.076 48.64 104.492 48.64C99.4568 48.64 95.4888 47.1893 92.5875 44.288C89.7288 41.3867 88.2995 37.4827 88.2995 32.576C88.2995 29.1627 89.0248 26.1333 90.4755 23.488C91.9262 20.8427 93.9742 18.752 96.6195 17.216C99.2648 15.68 102.358 14.912 105.9 14.912ZM104.94 40.128C107.116 40.128 108.844 39.3173 110.124 37.696C111.446 36.032 112.108 33.8133 112.108 31.04C112.108 28.6507 111.532 26.7947 110.38 25.472C109.228 24.1067 107.649 23.424 105.644 23.424C103.425 23.424 101.654 24.256 100.332 25.92C99.0515 27.5413 98.4115 29.7387 98.4115 32.512C98.4115 34.9013 98.9662 36.7787 100.076 38.144C101.228 39.4667 102.849 40.128 104.94 40.128ZM138.841 48.64C135.086 48.64 132.249 47.36 130.329 44.8C128.409 42.24 127.47 38.6773 127.513 34.112L127.641 15.424H137.433L137.305 33.344C137.305 35.264 137.646 36.7787 138.329 37.888C139.011 38.9973 140.078 39.552 141.529 39.552C142.766 39.552 143.897 39.168 144.921 38.4C145.945 37.632 146.841 36.352 147.609 34.56C148.377 32.768 148.974 30.3147 149.401 27.2C149.87 24.0853 150.126 20.16 150.169 15.424H159.641V48H149.849L150.297 41.728C149.017 43.9467 147.395 45.6533 145.433 46.848C143.47 48.0427 141.273 48.64 138.841 48.64ZM181.807 48.64C177.796 48.64 174.618 47.5307 172.271 45.312C169.924 43.0507 168.772 40.0853 168.815 36.416L169.071 23.552H163.695V15.424H169.199L169.263 8.768H178.991L178.927 15.424H189.103V23.552H178.799L178.607 35.328C178.607 36.864 179.012 38.0587 179.823 38.912C180.634 39.7653 181.85 40.192 183.471 40.192C184.41 40.192 185.306 40.0853 186.159 39.872C187.055 39.616 187.972 39.1467 188.911 38.464L191.727 45.952C189.551 47.744 186.244 48.64 181.807 48.64Z" fill="white"/>
</svg>
